<?xml version="1.0" encoding="UTF-8"?>
<!-- Generator: Adobe Illustrator 19.2.0, SVG Export Plug-In . SVG Version: 6.00 Build 0)  -->
<svg version="1.1" id="Layer_1" xmlns="http://www.w3.org/2000/svg" xmlns:xlink="http://www.w3.org/1999/xlink" x="0px" y="0px" viewBox="0 0 1920 1080" style="enable-background:new 0 0 1920 1080;" xml:space="preserve">
<style type="text/css">
	.st0{fill:#8C6239;}
	.st1{fill:#754C24;}
	.st2{fill:#603813;}
	.st3{fill:#A67C52;}
	.st4{fill:#333333;}
	.st5{fill:#F69B76;}
	.st6{fill:#E88D6D;}
	.st7{fill:#4D4D4D;}
	.st8{fill:#F8C09D;}
	.st9{fill:#F2F2F2;}
	.st10{fill:#FFFFFF;}
	.st11{fill:#F6AE8D;}
	.st12{fill:#EF937E;}
	.st13{fill:none;stroke:#EF937E;stroke-width:4.5315;stroke-linecap:round;stroke-miterlimit:10;}
</style>
<path class="st0" d="M1057.6,655.3H725.3V466.7c0-43.2,35-78.2,78.2-78.2h175.9c43.2,0,78.2,35,78.2,78.2V655.3z"/>
<rect x="1057.6" y="574.6" class="st1" width="119.1" height="146"/>
<polygon class="st2" points="1119,695.1 812.8,695.1 812.8,655.3 1057.6,655.3 "/>
<rect x="812.8" y="724" class="st0" width="305.9" height="34.4"/>
<path class="st0" d="M886.1,851.5H713c-12.5,0-22.6-30.1-22.6-42.6V630.3h195.7V851.5z"/>
<path class="st0" d="M1118,851.5h48.8c12.5,0,22.6-10.1,22.6-22.6v-202H1118V851.5z"/>
<circle class="st0" cx="1175.7" cy="632.2" r="58.4"/>
<path class="st2" d="M775,878.6L775,878.6c-8.9,0-16.1-7.2-16.1-16.1v-11h32.2v11C791.1,871.4,783.9,878.6,775,878.6z"/>
<path class="st2" d="M1156.5,878.6L1156.5,878.6c-8.9,0-16.1-7.2-16.1-16.1v-11h32.2v11C1172.6,871.4,1165.4,878.6,1156.5,878.6z"/>
<rect x="886" y="694.6" class="st3" width="232.7" height="45.6"/>
<rect x="886" y="751.4" class="st1" width="232.7" height="100.1"/>
<rect x="886" y="740.3" class="st2" width="232.7" height="11.1"/>
<rect x="841.7" y="631.6" class="st4" width="141.5" height="29.7"/>
<path class="st5" d="M865.1,424h84.1c18.7,0,33.9,15.2,33.9,33.9v173.6h-152V458C831.2,439.2,846.4,424,865.1,424z"/>
<path class="st6" d="M827.7,475l18.7-5.1c0,0,4.7,40.8,28.6,60.9c10.4,8.8,30.9,9.5,43.8,8.8c31.8-1.7,64.2-16.8,64.2-16.8  l-0.2,109.6l-151.6-0.2L827.7,475z"/>
<path class="st5" d="M816.1,436.3c0,0,20.6-11.7,49-12.2c18.1-0.3-27.7,27.7-27.7,27.7L816.1,436.3z"/>
<path class="st5" d="M950.6,424.6c0,0,36.4-2.8,45.9,13.2c8.6,14.3-17.8,22.3-17.8,22.3L950.6,424.6z"/>
<path class="st1" d="M1080.3,854l10,39h81.3c0,0-3-18-22.9-21.5c-19.8-3.6-36.6,7.7-36.6,7.7l-13-25.2H1080.3z"/>
<path class="st1" d="M1156.3,854l10,39h81.3c0,0-3-18-22.9-21.5c-19.8-3.6-36.6,7.7-36.6,7.7l-15.2-29.5L1156.3,854z"/>
<path class="st4" d="M1020,648.4l-96.3-10.1l-8.8,28.6c-3.3,10.9,2.7,22.4,13.6,25.7l118.5,7.7l97.8,158.9l39.6-11.5l-89.1-150.2  c-15.8-28.8-29-43.9-53.5-46.6L1020,648.4z"/>
<path class="st7" d="M948.1,648.9l-106.7-10.6l-1.1,28.6c-0.9,14.1,2.7,22.4,13.6,25.7l118.5,7.7l104.1,170l40-10.6l-95.9-162.1  c-11-21.3-12.7-36.2-46-45.7L948.1,648.9z"/>
<path class="st5" d="M1007.2,588.5L1007.2,588.5c-10.1,1.5-19.5-5.4-21-15.4l-18.5-120.7c-1.5-10.1,5.4-19.5,15.4-21l0,0  c10.1-1.5,18.9,11,22.1,25.7l17.4,110.4C1024.2,577.5,1017.3,586.9,1007.2,588.5z"/>
<path class="st5" d="M984,572L984,572c3.3-9.7,13.7-14.8,23.4-11.6l61.8,21.9l-11.8,35l-61.8-21.9C985.9,592.1,980.7,581.6,984,572z  "/>
<path class="st8" d="M1058.6,613.1c0,0,7.7,4.1,16.7,10.9c9.1,6.8,10.1,7.6,13.2,9.2s8.7-3,2-8.9c-6.7-5.9-4.3-6.5-0.4-4.1  c3.9,2.4,7.7,5.8,9.9,12.3c2.2,6.5,7.1,11.3,10.2,6.8c3.1-4.4-0.4-8.5-0.4-8.5s5,3.9,7.3,0s0-10.4-1.8-13.7c0,0,4.1-3.7-0.6-8.1  c-4.7-4.4-11.6-13.4-17.4-17.5c-5.8-4.1-30.8-1.1-30.8-1.1L1058.6,613.1z"/>
<path class="st5" d="M846,591.5L846,591.5c-10.1,1.5-19.5-5.4-21-15.4l-18.5-120.7c-1.5-10.1,5.4-19.5,15.4-21h0  c10.1-1.5,19.5,5.4,21,15.4l18.5,120.7C863,580.5,856.1,589.9,846,591.5z"/>
<path class="st5" d="M829.4,574.9L829.4,574.9c2.1-10,12-16.3,21.9-14.2l101.4,21.8l-7.8,36.1l-101.4-21.8  C833.6,594.6,827.3,584.8,829.4,574.9z"/>
<path class="st8" d="M945.8,614.4c0,0,8.1,3.3,17.9,9c9.8,5.7,10.9,6.4,14.1,7.7c3.3,1.3,8.3-4,1-9.1c-7.3-5.1-5-5.9-0.8-4  s8.3,4.9,11.2,11.1c2.9,6.2,8.3,10.4,10.9,5.6c2.6-4.8-1.3-8.4-1.3-8.4s5.4,3.3,7.3-0.9c1.9-4.2-1.2-10.3-3.3-13.4  c0,0,3.7-4.1-1.5-8c-5.2-3.9-13.1-12-19.3-15.4c-6.2-3.4-30.7,2.4-30.7,2.4L945.8,614.4z"/>
<g>
	<path class="st9" d="M1116.8,653.6H882.7c-3,0-5.5-2.4-5.5-5.5v0c0-3,2.4-5.5,5.5-5.5h234.1c3,0,5.5,2.4,5.5,5.5v0   C1122.3,651.2,1119.8,653.6,1116.8,653.6z"/>
	<path class="st9" d="M1130.4,653.6H941.3c-3.3,0-6.1-2.7-6.1-6.1l20.1-133.5c0-3.3,2.7-6.1,6.1-6.1h189.1c3.3,0,6.1,2.7,6.1,6.1   l-20.1,133.5C1136.5,650.9,1133.7,653.6,1130.4,653.6z"/>
	<path class="st10" d="M941.1,653.8L961.1,520c0-3.3,3.4-7,6.7-7h188.7c-0.2-2-2.8-5-6-5H961.3c-3.3,0-6.6,3.2-6.6,6.5L934.7,648   c0,3.3,3.3,6,6.6,6h0.5C941.7,654,941.1,653.9,941.1,653.8z"/>
	<circle class="st10" cx="1055.6" cy="580.8" r="20.4"/>
</g>
<circle class="st3" cx="849.5" cy="632.9" r="58.4"/>
<path class="st3" d="M707.6,648.9h141.9v-74.3H707.6c-20.5,0-37.2,16.6-37.2,37.2v0C670.4,632.3,687.1,648.9,707.6,648.9z"/>
<path class="st8" d="M939.8,427.7c0,13.4-10.9,24.5-24.3,24.5h0h-0.2c-13.4,0-24.5-11.1-24.5-24.5v-21.5h49V427.7z"/>
<path class="st11" d="M890.8,422.1c9.5,4.1,19.4,6.3,28.9,6.3c6.6,0,13.4-1.1,20.1-3.1v-15.5h-49V422.1z"/>
<path class="st8" d="M919.7,417.1c-34.9,0-76.8-30.5-76.8-73.2V215.4h154.1v128.5C996.9,386.6,972.6,417.1,919.7,417.1z"/>
<rect x="824.7" y="272.5" class="st4" width="36.3" height="39"/>
<circle class="st8" cx="842.4" cy="309.2" r="21.9"/>
<path class="st12" d="M838,312.3c0-4.3,3.5-7.8,7.8-7.8c1.2,0,2.3,0.3,3.3,0.7c-1.4-2.3-3.8-3.8-6.7-3.8c-4.3,0-7.8,3.5-7.8,7.8  c0,3.1,1.8,5.8,4.5,7C838.4,315.1,838,313.7,838,312.3z"/>
<path class="st4" d="M855.5,211.4v0.4H846c-11.7,0-21.2,9.3-21.2,20.9l0-0.2v29.9V287H861v-11.1c0-7.4,5.7-13.3,13.2-13.3h107.8  c14.1,0,25.6-11.6,25.6-25.7v-51.3H881.3C867.3,185.5,855.5,197.3,855.5,211.4z"/>
<path class="st13" d="M928.2,346.9c0,13.6,11.1,24.7,24.7,24.7l0,0c13.6,0,24.7-11.1,24.7-24.7"/>
<path class="st12" d="M952.7,321v15.9c0,0.7,0.9,1.3,1.6,1.3h9.4c2.6,0,4-3,2.3-4.9l-10.9-13C954.4,319.2,952.7,319.7,952.7,321z"/>
<ellipse class="st4" cx="918.8" cy="311.9" rx="5" ry="8.8"/>
<ellipse class="st4" cx="982.3" cy="311.9" rx="5" ry="8.8"/>
</svg>